# xmcd
#
# Track frame offsets:
#	150
#	11494
#	24502
#	40277
#	52846
#	64245
#	74618
#	87663
#	101001
#	115512
#	126680
#	139592
#	151214
#	168064
#	181792
#
# Disc length: 2571 seconds
#
# Revision: 1
# Processed by: cddbd v1.5.2PL0 Copyright (c) Steve Scherf et al.
# Submitted via: audiograbber 1.83.01
#
DISCID=c50a090f
DTITLE=Die Kasermandln - Das Beste
DYEAR=2016
DGENRE=Volksmusik
TTITLE0=Rehbraune Augen
TTITLE1=Willkommen in Tirol
TTITLE2=Bless
TTITLE3=Rennsteiglied
TTITLE4=A bisserl G´mütlichkeit
TTITLE5=Die Wamp´n
TTITLE6=Mei liebes Mutterl
TTITLE7=Wir gehör´n no lang nett zum alten Eisen
TTITLE8=Hallo es ist famos
TTITLE9=Edelweiß-Landler
TTITLE10=Haflinger-Polka
TTITLE11=Träume von Linz
TTITLE12=Erzherzog-Johann-Jodler
TTITLE13=Ho-Ruck-Boarischer
TTITLE14=Ein Dankeschön an dich
EXTD=
EXTT0=
EXTT1=
EXTT2=
EXTT3=
EXTT4=
EXTT5=
EXTT6=
EXTT7=
EXTT8=
EXTT9=
EXTT10=
EXTT11=
EXTT12=
EXTT13=
EXTT14=
PLAYORDER=
